<svg width="20" height="20" viewBox="0 0 20 20" fill="none" xmlns="http://www.w3.org/2000/svg">
<g clip-path="url(#clip0_324_3693)">
<path d="M3.99935 -0.1H15.9993C16.7331 -0.1 17.4368 0.191487 17.9557 0.710338C18.4745 1.22919 18.766 1.9329 18.766 2.66667V17.3333C18.766 18.0671 18.4745 18.7708 17.9557 19.2897C17.4368 19.8085 16.7331 20.1 15.9993 20.1H3.99935C3.26558 20.1 2.56187 19.8085 2.04302 19.2897C1.52417 18.7708 1.23268 18.0671 1.23268 17.3333V2.66667C1.23268 1.9329 1.52417 1.22919 2.04302 0.710338C2.56187 0.191487 3.26558 -0.1 3.99935 -0.1ZM2.76602 17.3333C2.76602 17.6604 2.89596 17.9741 3.12725 18.2054C3.35855 18.4367 3.67225 18.5667 3.99935 18.5667H15.9993C16.3264 18.5667 16.6402 18.4367 16.8714 18.2054C17.1027 17.9741 17.2327 17.6604 17.2327 17.3333V2.66667C17.2327 2.33957 17.1027 2.02586 16.8714 1.79457C16.6402 1.56327 16.3264 1.43333 15.9993 1.43333H3.99935C3.67225 1.43333 3.35855 1.56327 3.12725 1.79457C2.89596 2.02586 2.76602 2.33957 2.76602 2.66667V17.3333Z" fill="#BBE7E6" stroke="#BBE7E6" stroke-width="0.2"/>
<path d="M5.62573 5.2335H11.6257C11.8291 5.2335 12.0241 5.31427 12.1678 5.45805C12.3116 5.60183 12.3924 5.79683 12.3924 6.00016C12.3924 6.2035 12.3116 6.3985 12.1678 6.54228C12.0241 6.68606 11.8291 6.76683 11.6257 6.76683H5.62573C5.4224 6.76683 5.22739 6.68606 5.08361 6.54228C4.93984 6.3985 4.85906 6.20349 4.85906 6.00016C4.85906 5.79683 4.93984 5.60183 5.08362 5.45805C5.22739 5.31427 5.4224 5.2335 5.62573 5.2335ZM14.9145 13.458L14.8438 13.5288L14.9145 13.458C15.0583 13.6018 15.1391 13.7968 15.1391 14.0002C15.1391 14.2035 15.0583 14.3985 14.9145 14.5423C14.7707 14.6861 14.5757 14.7668 14.3724 14.7668H13.8657C13.6624 14.7668 13.4674 14.6861 13.3236 14.5423C13.1798 14.3985 13.0991 14.2035 13.0991 14.0002C13.0991 13.7968 13.1798 13.6018 13.3236 13.458C13.4674 13.3143 13.6624 13.2335 13.8657 13.2335H13.8791H14.3724C14.5757 13.2335 14.7707 13.3143 14.9145 13.458ZM5.62573 9.2335H11.6257C11.8291 9.2335 12.0241 9.31427 12.1678 9.45805C12.3116 9.60183 12.3924 9.79683 12.3924 10.0002C12.3924 10.2035 12.3116 10.3985 12.1678 10.5423C12.0241 10.6861 11.8291 10.7668 11.6257 10.7668H5.62573C5.4224 10.7668 5.22739 10.6861 5.08361 10.5423C4.93984 10.3985 4.85906 10.2035 4.85906 10.0002C4.85906 9.79683 4.93984 9.60183 5.08362 9.45805C5.22739 9.31427 5.4224 9.2335 5.62573 9.2335ZM5.62573 13.2335H11.6257C11.8291 13.2335 12.0241 13.3143 12.1678 13.458C12.3116 13.6018 12.3924 13.7968 12.3924 14.0002C12.3924 14.2035 12.3116 14.3985 12.1678 14.5423C12.0241 14.6861 11.8291 14.7668 11.6257 14.7668H5.62573C5.4224 14.7668 5.22739 14.6861 5.08361 14.5423C4.93984 14.3985 4.85906 14.2035 4.85906 14.0002C4.85906 13.7968 4.93984 13.6018 5.08361 13.458C5.22739 13.3143 5.4224 13.2335 5.62573 13.2335ZM13.8791 5.2335H14.3724C14.5757 5.2335 14.7707 5.31427 14.9145 5.45805C15.0583 5.60183 15.1391 5.79683 15.1391 6.00016C15.1391 6.2035 15.0583 6.3985 14.9145 6.54228C14.7707 6.68606 14.5757 6.76683 14.3724 6.76683H13.8657C13.6624 6.76683 13.4674 6.68606 13.3236 6.54228C13.1798 6.3985 13.0991 6.2035 13.0991 6.00016C13.0991 5.79683 13.1798 5.60183 13.3236 5.45805C13.4674 5.31427 13.6624 5.2335 13.8657 5.2335H13.8791ZM13.8791 9.2335H14.3724C14.5757 9.2335 14.7707 9.31427 14.9145 9.45805C15.0583 9.60183 15.1391 9.79683 15.1391 10.0002C15.1391 10.2035 15.0583 10.3985 14.9145 10.5423C14.7707 10.6861 14.5757 10.7668 14.3724 10.7668H13.8657C13.6624 10.7668 13.4674 10.6861 13.3236 10.5423C13.1798 10.3985 13.0991 10.2035 13.0991 10.0002C13.0991 9.79683 13.1798 9.60183 13.3236 9.45805C13.4674 9.31427 13.6624 9.2335 13.8657 9.2335H13.8791Z" fill="#BBE7E6" stroke="#BBE7E6" stroke-width="0.2"/>
</g>
<defs>
<clipPath id="clip0_324_3693">
<rect width="20" height="20" fill="white" transform="matrix(-1 0 0 1 20 0)"/>
</clipPath>
</defs>
</svg>
