<svg width="19" height="22" viewBox="0 0 19 22" fill="none" xmlns="http://www.w3.org/2000/svg">
<path d="M16.8571 9.73561C16.3239 9.1722 15.6139 8.8128 14.8494 8.71429V6.55C14.8494 5.78833 14.6994 5.03412 14.4079 4.33044C14.1164 3.62675 13.6892 2.98736 13.1506 2.44878C12.612 1.9102 11.9726 1.48298 11.2689 1.1915C10.5653 0.900021 9.81104 0.75 9.04938 0.75C8.28771 0.75 7.5335 0.900021 6.82981 1.1915C6.12612 1.48298 5.48674 1.9102 4.94816 2.44878C4.40958 2.98736 3.98235 3.62675 3.69087 4.33044C3.3994 5.03412 3.24937 5.78833 3.24937 6.55V8.79509C2.57119 8.97444 1.96424 9.36235 1.51597 9.90661C1.02192 10.5065 0.75121 11.2591 0.75 12.0362V12.0366L0.75 18.139L0.75 18.1393C0.750965 19.0284 1.1046 19.8808 1.73331 20.5096C2.36203 21.1383 3.21447 21.4919 4.1036 21.4929H4.10388H14.4216H14.4219C15.311 21.4918 16.1633 21.1381 16.792 20.5094C17.4206 19.8807 17.7742 19.0283 17.7751 18.1393V18.139V12.0366V12.0362C17.7738 11.1803 17.4454 10.3573 16.8571 9.73561ZM4.87475 6.55C4.87475 5.44272 5.31461 4.38079 6.09758 3.59783C6.88054 2.81486 7.94247 2.375 9.04975 2.375C10.157 2.375 11.219 2.81486 12.0019 3.59783C12.7849 4.38079 13.2248 5.44272 13.2248 6.55V8.68312H4.87475V6.55ZM16.1498 18.1373C16.1493 18.5957 15.967 19.0352 15.6429 19.3593C15.3188 19.6835 14.8794 19.8659 14.421 19.8664H4.10453C3.64609 19.8659 3.20658 19.6835 2.88241 19.3593C2.55829 19.0352 2.37595 18.5958 2.37537 18.1374V12.0353C2.37603 11.577 2.55841 11.1376 2.88252 10.8135C3.20668 10.4894 3.64615 10.3071 4.10453 10.3066H14.4217C14.8801 10.3071 15.3195 10.4895 15.6436 10.8135C15.9677 11.1376 16.15 11.5771 16.1505 12.0354L16.1498 18.1373Z" fill="#BBE7E6" stroke="#BBE7E6" stroke-width="0.5"/>
<path d="M9.30663 13.2729C8.85973 13.2729 8.42285 13.4053 8.05124 13.6536C7.67963 13.9018 7.38999 14.2547 7.21893 14.6675C7.04788 15.0804 7.0031 15.5347 7.09027 15.973C7.17744 16.4113 7.39263 16.8139 7.70863 17.1299C8.02463 17.4459 8.42725 17.6611 8.86556 17.7483C9.30387 17.8355 9.75819 17.7907 10.1711 17.6196C10.5839 17.4486 10.9368 17.1589 11.185 16.7873C11.4332 16.4157 11.5657 15.9788 11.5656 15.5319C11.565 14.933 11.3268 14.3588 10.9033 13.9353C10.4798 13.5117 9.90557 13.2735 9.30663 13.2729ZM9.30663 16.6663C9.08225 16.6664 8.8629 16.5999 8.6763 16.4753C8.4897 16.3507 8.34425 16.1736 8.25833 15.9663C8.17242 15.759 8.1499 15.5309 8.19363 15.3109C8.23735 15.0908 8.34536 14.8886 8.50399 14.73C8.66262 14.5713 8.86475 14.4632 9.08481 14.4194C9.30487 14.3756 9.53297 14.398 9.74027 14.4839C9.94757 14.5697 10.1248 14.7151 10.2494 14.9017C10.3741 15.0882 10.4406 15.3076 10.4406 15.5319C10.4403 15.8326 10.3208 16.121 10.1082 16.3336C9.89559 16.5463 9.60733 16.6659 9.30663 16.6663Z" fill="#BBE7E6" stroke="#BBE7E6" stroke-width="0.5"/>
</svg>
