<svg width="20" height="20" viewBox="0 0 20 20" fill="none" xmlns="http://www.w3.org/2000/svg">
<g clip-path="url(#clip0_324_3691)">
<path d="M3.76172 19.9985C2.76716 19.9985 1.81333 19.6034 1.11007 18.9002C0.406807 18.1969 0.0117188 17.2431 0.0117188 16.2485V3.74854C0.0117188 2.75397 0.406807 1.80015 1.11007 1.09688C1.81333 0.393623 2.76716 -0.00146484 3.76172 -0.00146484H11.248C11.5795 -0.00146484 11.8974 0.130231 12.1319 0.364652C12.3663 0.599072 12.498 0.917015 12.498 1.24854C12.498 1.58006 12.3663 1.898 12.1319 2.13242C11.8974 2.36684 11.5795 2.49854 11.248 2.49854H3.76172C3.4302 2.49854 3.11226 2.63023 2.87784 2.86465C2.64342 3.09907 2.51172 3.41701 2.51172 3.74854V16.2485C2.51172 16.5801 2.64342 16.898 2.87784 17.1324C3.11226 17.3668 3.4302 17.4985 3.76172 17.4985H11.248C11.5795 17.4985 11.8974 17.6302 12.1319 17.8647C12.3663 18.0991 12.498 18.417 12.498 18.7485C12.498 19.0801 12.3663 19.398 12.1319 19.6324C11.8974 19.8668 11.5795 19.9985 11.248 19.9985H3.76172ZM14.4042 14.3423C14.1703 14.1079 14.0389 13.7903 14.0389 13.4592C14.0389 13.128 14.1703 12.8104 14.4042 12.576L15.728 11.2498H7.50672C7.1752 11.2498 6.85726 11.1181 6.62284 10.8837C6.38842 10.6492 6.25672 10.3313 6.25672 9.99979C6.25672 9.66827 6.38842 9.35032 6.62284 9.1159C6.85726 8.88148 7.1752 8.74979 7.50672 8.74979H15.728L14.113 7.13229C13.8944 6.89511 13.7759 6.5826 13.7823 6.26011C13.7888 5.93762 13.9197 5.6301 14.1476 5.40186C14.3755 5.17361 14.6828 5.04231 15.0053 5.0354C15.3278 5.02849 15.6405 5.14651 15.878 5.36478L19.628 9.11479C19.8014 9.29078 19.9194 9.51385 19.9672 9.7563C20.0149 9.99875 19.9904 10.2499 19.8967 10.4785C19.8337 10.629 19.7424 10.766 19.628 10.8823L16.173 14.3423C15.9387 14.5759 15.6213 14.707 15.2905 14.707C14.9596 14.707 14.6423 14.5759 14.408 14.3423H14.4042Z" fill="#BBE7E6"/>
</g>
<defs>
<clipPath id="clip0_324_3691">
<rect width="20" height="20" fill="white"/>
</clipPath>
</defs>
</svg>
