
<svg width="70" height="34" viewBox="0 0 70 34" fill="none" xmlns="http://www.w3.org/2000/svg">
<rect y="11.1577" width="70" height="12.0877" rx="4" fill="#BD0000"/>
<path d="M9.932 20C9.32133 20 8.86933 19.8547 8.576 19.564C8.28533 19.2707 8.14 18.8187 8.14 18.208V16.368C8.14 15.752 8.28533 15.2987 8.576 15.008C8.86667 14.7147 9.316 14.5707 9.924 14.576H10.892C11.3933 14.576 11.776 14.68 12.04 14.888C12.304 15.0933 12.4573 15.4187 12.5 15.864C12.516 15.976 12.4947 16.0613 12.436 16.12C12.3773 16.1787 12.292 16.208 12.18 16.208C11.9773 16.208 11.86 16.096 11.828 15.872C11.8013 15.6267 11.716 15.4613 11.572 15.376C11.4307 15.2907 11.204 15.248 10.892 15.248H9.924C9.64133 15.2453 9.41867 15.2773 9.256 15.344C9.096 15.4107 8.98133 15.5267 8.912 15.692C8.84533 15.8547 8.812 16.08 8.812 16.368V18.208C8.812 18.4933 8.84533 18.7173 8.912 18.88C8.98133 19.0427 9.09733 19.1587 9.26 19.228C9.42267 19.2947 9.64667 19.328 9.932 19.328H10.892C11.204 19.328 11.4307 19.2853 11.572 19.2C11.716 19.112 11.8013 18.9467 11.828 18.704C11.86 18.48 11.9773 18.368 12.18 18.368C12.292 18.368 12.3773 18.3973 12.436 18.456C12.4947 18.5147 12.516 18.6 12.5 18.712C12.4573 19.16 12.304 19.4867 12.04 19.692C11.776 19.8973 11.3933 20 10.892 20H9.932ZM14.958 20C14.4273 20 14.0327 19.872 13.774 19.616C13.518 19.36 13.39 18.968 13.39 18.44V17.512C13.39 16.976 13.518 16.5813 13.774 16.328C14.0327 16.072 14.4273 15.944 14.958 15.944H15.614C16.1473 15.944 16.542 16.072 16.798 16.328C17.054 16.584 17.182 16.9787 17.182 17.512V18.432C17.182 18.9627 17.054 19.3573 16.798 19.616C16.542 19.872 16.1473 20 15.614 20H14.958ZM14.062 18.44C14.062 18.784 14.1247 19.0187 14.25 19.144C14.3753 19.2667 14.6113 19.328 14.958 19.328H15.614C15.9633 19.328 16.1993 19.2653 16.322 19.14C16.4473 19.0147 16.51 18.7787 16.51 18.432V17.512C16.51 17.1627 16.4473 16.9267 16.322 16.804C16.1993 16.6787 15.9633 16.616 15.614 16.616H14.958C14.726 16.616 14.5447 16.6427 14.414 16.696C14.286 16.7467 14.1953 16.8373 14.142 16.968C14.0887 17.096 14.062 17.2773 14.062 17.512V18.44ZM23.0923 15.944C23.5963 15.944 23.9576 16.0627 24.1763 16.3C24.3976 16.5373 24.5083 16.9307 24.5083 17.48V19.664C24.5083 19.888 24.3963 20 24.1723 20C23.9483 20 23.8363 19.888 23.8363 19.664V17.48C23.8363 17.176 23.7776 16.956 23.6603 16.82C23.5456 16.684 23.3563 16.616 23.0923 16.616H22.7643C22.4603 16.616 22.243 16.684 22.1123 16.82C21.9816 16.956 21.9163 17.176 21.9163 17.48V19.664C21.9163 19.888 21.8043 20 21.5803 20C21.3563 20 21.2443 19.888 21.2443 19.664V17.48C21.2443 17.176 21.1856 16.956 21.0683 16.82C20.9536 16.684 20.7643 16.616 20.5003 16.616H20.1723C19.8683 16.616 19.651 16.684 19.5203 16.82C19.3896 16.956 19.3243 17.176 19.3243 17.48V19.664C19.3243 19.888 19.2123 20 18.9883 20C18.7643 20 18.6523 19.888 18.6523 19.664V16.28C18.6523 16.056 18.7643 15.944 18.9883 15.944C19.2123 15.944 19.3243 16.056 19.3243 16.28V16.464C19.4656 16.28 19.6203 16.148 19.7883 16.068C19.959 15.9853 20.1616 15.944 20.3963 15.944H20.5003C20.831 15.944 21.091 15.9907 21.2803 16.084C21.4696 16.1747 21.6136 16.3227 21.7123 16.528C21.8536 16.3173 22.003 16.168 22.1603 16.08C22.3203 15.9893 22.5216 15.944 22.7643 15.944H23.0923ZM26.4258 20C26.2018 20 26.0898 19.888 26.0898 19.664V16.28C26.0898 16.056 26.2018 15.944 26.4258 15.944C26.6498 15.944 26.7618 16.056 26.7618 16.28V19.664C26.7618 19.888 26.6498 20 26.4258 20ZM26.3138 15.288C26.0605 15.288 25.9338 15.16 25.9338 14.904V14.668C25.9338 14.4173 26.0605 14.292 26.3138 14.292H26.5458C26.7885 14.292 26.9098 14.4173 26.9098 14.668V14.904C26.9098 15.16 26.7885 15.288 26.5458 15.288H26.3138ZM28.7618 20C28.5378 20 28.4258 19.888 28.4258 19.664V16.28C28.4258 16.056 28.5378 15.944 28.7618 15.944C28.9858 15.944 29.0978 16.056 29.0978 16.28V16.412C29.3804 16.1 29.7964 15.944 30.3458 15.944H30.5698C31.1031 15.944 31.4978 16.072 31.7538 16.328C32.0098 16.584 32.1378 16.9787 32.1378 17.512V19.664C32.1378 19.888 32.0258 20 31.8018 20C31.5778 20 31.4658 19.888 31.4658 19.664V17.512C31.4658 17.1627 31.4018 16.9267 31.2738 16.804C31.1484 16.6787 30.9138 16.616 30.5698 16.616H30.3458C30.0258 16.616 29.7471 16.6533 29.5098 16.728C29.2724 16.8 29.1351 16.9147 29.0978 17.072V19.664C29.0978 19.888 28.9858 20 28.7618 20ZM34.6826 21.6C34.36 21.6 34.1053 21.5347 33.9186 21.404C33.7346 21.2733 33.616 21.0747 33.5626 20.808C33.544 20.696 33.564 20.608 33.6226 20.544C33.6813 20.48 33.7706 20.448 33.8906 20.448C33.992 20.448 34.0653 20.4747 34.1106 20.528C34.1586 20.584 34.2 20.6667 34.2346 20.776C34.2666 20.8347 34.316 20.8747 34.3826 20.896C34.452 20.9173 34.552 20.928 34.6826 20.928H36.1706C36.3706 20.928 36.5 20.896 36.5586 20.832C36.62 20.7707 36.6506 20.6427 36.6506 20.448V19.516C36.5066 19.6733 36.328 19.7933 36.1146 19.876C35.904 19.9587 35.6666 20 35.4026 20H35.0986C34.568 20 34.1733 19.872 33.9146 19.616C33.6586 19.36 33.5306 18.968 33.5306 18.44V17.512C33.5306 16.976 33.6573 16.5813 33.9106 16.328C34.1666 16.072 34.5626 15.944 35.0986 15.944H35.7546C35.944 15.944 36.1133 15.972 36.2626 16.028C36.4146 16.084 36.544 16.1693 36.6506 16.284V16.28C36.6506 16.056 36.7626 15.944 36.9866 15.944C37.2106 15.944 37.3226 16.056 37.3226 16.28V20.448C37.3226 20.84 37.228 21.1293 37.0386 21.316C36.852 21.5053 36.5626 21.6 36.1706 21.6H34.6826ZM35.0986 19.328H35.4026C35.7546 19.328 36.0506 19.284 36.2906 19.196C36.5306 19.108 36.6506 18.968 36.6506 18.776V17.176C36.6506 16.96 36.572 16.8133 36.4146 16.736C36.26 16.656 36.04 16.616 35.7546 16.616H35.0986C34.7546 16.616 34.5186 16.6773 34.3906 16.8C34.2653 16.9227 34.2026 17.16 34.2026 17.512V18.44C34.2026 18.7787 34.2653 19.012 34.3906 19.14C34.516 19.2653 34.752 19.328 35.0986 19.328ZM42.7818 20C42.3258 20 41.9698 19.908 41.7138 19.724C41.4604 19.54 41.3018 19.256 41.2378 18.872C41.2271 18.7547 41.2511 18.6667 41.3098 18.608C41.3684 18.5493 41.4538 18.52 41.5658 18.52C41.6778 18.52 41.7591 18.5467 41.8098 18.6C41.8631 18.6533 41.8991 18.736 41.9178 18.848C41.9578 19.032 42.0431 19.1587 42.1738 19.228C42.3071 19.2947 42.5098 19.328 42.7818 19.328H43.9338C44.2778 19.328 44.5111 19.2667 44.6337 19.144C44.7591 19.0187 44.8218 18.7867 44.8218 18.448C44.8218 18.104 44.7578 17.8693 44.6298 17.744C44.5018 17.616 44.2698 17.552 43.9338 17.552H42.9418C42.4378 17.552 42.0631 17.4293 41.8178 17.184C41.5751 16.936 41.4538 16.56 41.4538 16.056C41.4538 15.5547 41.5738 15.1827 41.8138 14.94C42.0564 14.6973 42.4298 14.576 42.9338 14.576H43.8858C44.3098 14.576 44.6418 14.6627 44.8818 14.836C45.1244 15.0093 45.2778 15.2747 45.3418 15.632C45.3578 15.7467 45.3364 15.8347 45.2778 15.896C45.2191 15.9547 45.1311 15.984 45.0138 15.984C44.9071 15.984 44.8271 15.956 44.7738 15.9C44.7204 15.844 44.6858 15.7627 44.6698 15.656C44.6271 15.4987 44.5458 15.392 44.4258 15.336C44.3058 15.2773 44.1258 15.248 43.8858 15.248H42.9338C42.6138 15.248 42.3991 15.3053 42.2898 15.42C42.1804 15.532 42.1258 15.744 42.1258 16.056C42.1258 16.3707 42.1818 16.5867 42.2938 16.704C42.4058 16.8213 42.6218 16.88 42.9418 16.88H43.9338C44.4591 16.88 44.8498 17.008 45.1058 17.264C45.3644 17.52 45.4938 17.9147 45.4938 18.448C45.4938 18.9787 45.3658 19.3707 45.1098 19.624C44.8538 19.8747 44.4618 20 43.9338 20H42.7818ZM48.3408 20C47.8101 20 47.4155 19.872 47.1568 19.616C46.9008 19.36 46.7728 18.968 46.7728 18.44V17.512C46.7728 16.976 46.9008 16.5813 47.1568 16.328C47.4155 16.072 47.8101 15.944 48.3408 15.944H48.9968C49.5301 15.944 49.9248 16.072 50.1808 16.328C50.4368 16.584 50.5648 16.9787 50.5648 17.512V18.432C50.5648 18.9627 50.4368 19.3573 50.1808 19.616C49.9248 19.872 49.5301 20 48.9968 20H48.3408ZM47.4448 18.44C47.4448 18.784 47.5075 19.0187 47.6328 19.144C47.7581 19.2667 47.9941 19.328 48.3408 19.328H48.9968C49.3461 19.328 49.5821 19.2653 49.7048 19.14C49.8301 19.0147 49.8928 18.7787 49.8928 18.432V17.512C49.8928 17.1627 49.8301 16.9267 49.7048 16.804C49.5821 16.6787 49.3461 16.616 48.9968 16.616H48.3408C48.1088 16.616 47.9275 16.6427 47.7968 16.696C47.6688 16.7467 47.5781 16.8373 47.5248 16.968C47.4715 17.096 47.4448 17.2773 47.4448 17.512V18.44ZM53.4111 20C52.8805 20 52.4858 19.872 52.2271 19.616C51.9711 19.36 51.8431 18.968 51.8431 18.44V17.512C51.8431 16.976 51.9711 16.5813 52.2271 16.328C52.4858 16.072 52.8805 15.944 53.4111 15.944H54.0671C54.6005 15.944 54.9951 16.072 55.2511 16.328C55.5071 16.584 55.6351 16.9787 55.6351 17.512V18.432C55.6351 18.9627 55.5071 19.3573 55.2511 19.616C54.9951 19.872 54.6005 20 54.0671 20H53.4111ZM52.5151 18.44C52.5151 18.784 52.5778 19.0187 52.7031 19.144C52.8285 19.2667 53.0645 19.328 53.4111 19.328H54.0671C54.4165 19.328 54.6525 19.2653 54.7751 19.14C54.9005 19.0147 54.9631 18.7787 54.9631 18.432V17.512C54.9631 17.1627 54.9005 16.9267 54.7751 16.804C54.6525 16.6787 54.4165 16.616 54.0671 16.616H53.4111C53.1791 16.616 52.9978 16.6427 52.8671 16.696C52.7391 16.7467 52.6485 16.8373 52.5951 16.968C52.5418 17.096 52.5151 17.2773 52.5151 17.512V18.44ZM57.4414 20C57.2174 20 57.1054 19.888 57.1054 19.664V16.28C57.1054 16.056 57.2174 15.944 57.4414 15.944C57.6654 15.944 57.7774 16.056 57.7774 16.28V16.412C58.0601 16.1 58.4761 15.944 59.0254 15.944H59.2494C59.7828 15.944 60.1774 16.072 60.4334 16.328C60.6894 16.584 60.8174 16.9787 60.8174 17.512V19.664C60.8174 19.888 60.7054 20 60.4814 20C60.2574 20 60.1454 19.888 60.1454 19.664V17.512C60.1454 17.1627 60.0814 16.9267 59.9534 16.804C59.8281 16.6787 59.5934 16.616 59.2494 16.616H59.0254C58.7054 16.616 58.4268 16.6533 58.1894 16.728C57.9521 16.8 57.8148 16.9147 57.7774 17.072V19.664C57.7774 19.888 57.6654 20 57.4414 20Z" fill="white"/>
</svg>
