<svg width="31" height="31" viewBox="0 0 31 31" fill="none" xmlns="http://www.w3.org/2000/svg">
<g clip-path="url(#clip0_324_4224)">
<path d="M22.8199 26.3538C22.8199 27.3932 22.0029 28.2356 20.9963 28.2375H4.58456C3.57615 28.2375 2.76103 27.3932 2.76103 26.3538V9.41318C2.76103 8.37377 3.57615 7.5313 4.58456 7.5313H20.9963C22.0029 7.5313 22.8199 8.37377 22.8199 9.41318V26.3538ZM20.9963 5.64941H4.58456C2.56956 5.64941 0.9375 7.33436 0.9375 9.41318V26.3538C0.9375 28.4326 2.56956 30.1194 4.58456 30.1194H20.9963C23.0095 30.1194 24.6434 28.4344 24.6434 26.3538V9.41318C24.6434 7.33436 23.0095 5.64941 20.9963 5.64941Z" fill="#BBE7E6"/>
<path d="M6.39844 24.4626H13.6926V22.5789H6.39844V24.4626ZM6.39844 20.697H19.1631V18.8151H6.39844V20.697ZM6.39844 16.9332H19.1631V15.0495H6.39844V16.9332ZM6.39844 13.1677H19.1631V11.2876H6.39844V13.1658V13.1677Z" fill="#BBE7E6"/>
<path d="M26.4924 0.00537109H10.0807C8.06565 0.00537109 6.43359 1.69031 6.43359 3.76914H8.25712C8.25712 2.72972 9.07406 1.88725 10.0807 1.88725H26.4924C27.499 1.88725 28.3159 2.72972 28.3159 3.76914V20.7097C28.3159 21.7491 27.499 22.5916 26.4924 22.5934V24.4753C28.5074 24.4753 30.1395 22.7904 30.1395 20.7097V3.76914C30.1395 1.69031 28.5074 0.00537109 26.4924 0.00537109Z" fill="#BBE7E6"/>
</g>
<defs>
<clipPath id="clip0_324_4224">
<rect width="31" height="31" fill="white"/>
</clipPath>
</defs>
</svg>
