<svg width="40" height="40" viewBox="0 0 40 40" fill="none" xmlns="http://www.w3.org/2000/svg">
<path fill-rule="evenodd" clip-rule="evenodd" d="M6 0C2.68629 0 0 2.68629 0 6V34C0 37.3137 2.68629 40 6 40H34C37.3137 40 40 37.3137 40 34V6C40 2.68629 37.3137 0 34 0H6ZM29.8 25.84V13.96C29.8 12.856 29.416 11.92 28.648 11.152C27.88 10.384 26.944 10 25.84 10H10V15.292H23.212V17.272H10V22.528H23.212V24.508H10V29.8H25.84C26.944 29.8 27.88 29.416 28.648 28.648C29.416 27.88 29.8 26.944 29.8 25.84Z" fill="#BBE7E6"/>
</svg>
