<svg width="40" height="40" viewBox="0 0 40 40" fill="none" xmlns="http://www.w3.org/2000/svg">
<path fill-rule="evenodd" clip-rule="evenodd" d="M6 0C2.68629 0 0 2.68629 0 6V34C0 37.3137 2.68629 40 6 40H34C37.3137 40 40 37.3137 40 34V6C40 2.68629 37.3137 0 34 0H6ZM29.8693 18.768V10.2H10.0693V15.492H23.2813V17.472H14.0293C12.9253 17.472 11.9893 17.856 11.2213 18.624C10.4533 19.392 10.0693 20.3279 10.0693 21.4319V30H29.8693V24.708H16.6573V22.728H25.9093C26.9893 22.728 27.9133 22.344 28.6813 21.576C29.4733 20.808 29.8693 19.872 29.8693 18.768Z" fill="#BBE7E6"/>
</svg>
