<svg width="377" height="208" viewBox="0 0 377 208" fill="none" xmlns="http://www.w3.org/2000/svg">
<g filter="url(#filter0_b_1250_1476)">
<path fill-rule="evenodd" clip-rule="evenodd" d="M100.5 1C45.5477 1 1 45.5477 1 100.5C1 155.452 45.5477 200 100.5 200H271.5C289.186 200 305.794 195.386 320.187 187.295L350.288 200.627C361.047 205.391 366.426 207.774 369.678 206.739C372.497 205.842 374.695 203.618 375.558 200.789C376.554 197.525 374.108 192.174 369.216 181.473L356.131 152.851C365.558 137.644 371 119.707 371 100.5C371 45.5477 326.452 1 271.5 1H100.5Z" fill="url(#paint0_linear_1250_1476)"/>
<path d="M320.187 187.295L320.591 186.381L320.133 186.178L319.697 186.423L320.187 187.295ZM350.288 200.627L349.883 201.541L350.288 200.627ZM369.678 206.739L369.981 207.692L369.678 206.739ZM375.558 200.789L376.514 201.081V201.081L375.558 200.789ZM369.216 181.473L370.125 181.057L369.216 181.473ZM356.131 152.851L355.281 152.324L354.999 152.779L355.221 153.267L356.131 152.851ZM2 100.5C2 46.1 46.1 2 100.5 2V0C44.9954 0 0 44.9954 0 100.5H2ZM100.5 199C46.1 199 2 154.9 2 100.5H0C0 156.005 44.9954 201 100.5 201V199ZM271.5 199H100.5V201H271.5V199ZM319.697 186.423C305.45 194.432 289.01 199 271.5 199V201C289.362 201 306.139 196.339 320.677 188.167L319.697 186.423ZM350.693 199.712L320.591 186.381L319.782 188.209L349.883 201.541L350.693 199.712ZM369.375 205.786C368.087 206.196 366.208 205.97 363.122 204.912C360.077 203.867 356.09 202.103 350.693 199.712L349.883 201.541C355.244 203.915 359.326 205.724 362.473 206.804C365.58 207.869 368.017 208.317 369.981 207.692L369.375 205.786ZM374.601 200.497C373.834 203.012 371.88 204.989 369.375 205.786L369.981 207.692C373.113 206.696 375.555 204.224 376.514 201.081L374.601 200.497ZM368.306 181.889C370.76 187.257 372.572 191.223 373.653 194.255C374.748 197.329 374.996 199.204 374.601 200.497L376.514 201.081C377.116 199.11 376.639 196.678 375.537 193.584C374.42 190.45 372.563 186.39 370.125 181.057L368.306 181.889ZM355.221 153.267L368.306 181.889L370.125 181.057L357.04 152.435L355.221 153.267ZM370 100.5C370 119.516 364.612 137.271 355.281 152.324L356.981 153.378C366.503 138.017 372 119.899 372 100.5H370ZM271.5 2C325.9 2 370 46.1 370 100.5H372C372 44.9954 327.005 0 271.5 0V2ZM100.5 2H271.5V0H100.5V2Z" fill="url(#paint1_linear_1250_1476)"/>
</g>
<circle cx="232" cy="104" r="15" fill="#888888"/>
<circle cx="182" cy="104" r="15" fill="#888888"/>
<circle cx="132" cy="104" r="15" fill="#888888"/>
<defs>
<filter id="filter0_b_1250_1476" x="-60" y="-60" width="496.776" height="327.978" filterUnits="userSpaceOnUse" color-interpolation-filters="sRGB">
<feFlood flood-opacity="0" result="BackgroundImageFix"/>
<feGaussianBlur in="BackgroundImageFix" stdDeviation="30"/>
<feComposite in2="SourceAlpha" operator="in" result="effect1_backgroundBlur_1250_1476"/>
<feBlend mode="normal" in="SourceGraphic" in2="effect1_backgroundBlur_1250_1476" result="shape"/>
</filter>
<linearGradient id="paint0_linear_1250_1476" x1="1" y1="1" x2="174.887" y2="317.387" gradientUnits="userSpaceOnUse">
<stop/>
<stop offset="1" stop-color="#959595" stop-opacity="0"/>
</linearGradient>
<linearGradient id="paint1_linear_1250_1476" x1="375.777" y1="0.999988" x2="201.89" y2="317.387" gradientUnits="userSpaceOnUse">
<stop stop-color="#C6C6C6"/>
<stop offset="0.932292" stop-color="#787878" stop-opacity="0.0677083"/>
<stop offset="1" stop-opacity="0"/>
</linearGradient>
</defs>
</svg>
