<svg width="382" height="209" viewBox="0 0 382 209" fill="none" xmlns="http://www.w3.org/2000/svg">
<g filter="url(#filter0_b_1250_1461)">
<path fill-rule="evenodd" clip-rule="evenodd" d="M280.554 1C335.506 1 380.054 45.5477 380.054 100.5C380.054 155.452 335.506 200 280.554 200H105.362C87.7797 200 71.2622 195.439 56.9283 187.437L26.4854 200.768C15.7056 205.489 10.3156 207.849 7.06738 206.801C4.25262 205.892 2.06393 203.659 1.21271 200.826C0.230408 197.557 2.69971 192.216 7.63834 181.535L20.8281 153.006C11.3419 137.766 5.86237 119.773 5.86237 100.5C5.86237 45.5477 50.41 1 105.362 1H280.554Z" fill="url(#paint0_linear_1250_1461)"/>
<path d="M56.9283 187.437L56.5271 186.521L56.9821 186.321L57.4158 186.563L56.9283 187.437ZM26.4854 200.768L26.0843 199.852L26.0843 199.852L26.4854 200.768ZM7.06738 206.801L7.37455 205.849L7.37456 205.849L7.06738 206.801ZM1.21271 200.826L0.255016 201.114L0.255013 201.114L1.21271 200.826ZM7.63834 181.535L8.54602 181.954L8.54602 181.954L7.63834 181.535ZM20.8281 153.006L21.6771 152.478L21.9623 152.936L21.7358 153.426L20.8281 153.006ZM379.054 100.5C379.054 46.1 334.954 2 280.554 2V0C336.058 0 381.054 44.9954 381.054 100.5H379.054ZM280.554 199C334.954 199 379.054 154.9 379.054 100.5H381.054C381.054 156.005 336.058 201 280.554 201V199ZM105.362 199H280.554V201H105.362V199ZM57.4158 186.563C71.6045 194.485 87.9547 199 105.362 199V201C87.6047 201 70.9199 196.394 56.4408 188.31L57.4158 186.563ZM26.0843 199.852L56.5271 186.521L57.3294 188.353L26.8866 201.684L26.0843 199.852ZM7.37456 205.849C8.66115 206.265 10.5406 206.046 13.6316 205.001C16.6815 203.969 20.6764 202.22 26.0843 199.852L26.8866 201.684C21.5145 204.037 17.4246 205.829 14.2725 206.895C11.1615 207.948 8.72187 208.386 6.76021 207.753L7.37456 205.849ZM2.1704 200.538C2.92705 203.056 4.87255 205.042 7.37455 205.849L6.76021 207.753C3.6327 206.743 1.20082 204.261 0.255016 201.114L2.1704 200.538ZM8.54602 181.954C6.0685 187.313 4.23929 191.271 3.14573 194.3C2.03746 197.369 1.78132 199.244 2.1704 200.538L0.255013 201.114C-0.338209 199.14 0.149154 196.71 1.26462 193.621C2.39479 190.491 4.26955 186.438 6.73065 181.115L8.54602 181.954ZM21.7358 153.426L8.54602 181.954L6.73065 181.115L19.9204 152.587L21.7358 153.426ZM6.86237 100.5C6.86237 119.581 12.2867 137.391 21.6771 152.478L19.9791 153.535C10.3971 138.14 4.86237 119.965 4.86237 100.5H6.86237ZM105.362 2C50.9623 2 6.86237 46.1 6.86237 100.5H4.86237C4.86237 44.9954 49.8577 0 105.362 0V2ZM280.554 2H105.362V0H280.554V2Z" fill="url(#paint1_linear_1250_1461)"/>
</g>
<circle cx="241" cy="104" r="15" fill="#888888"/>
<circle cx="191" cy="104" r="15" fill="#888888"/>
<circle cx="141" cy="104" r="15" fill="#888888"/>
<defs>
<filter id="filter0_b_1250_1461" x="-59.999" y="-60" width="501.053" height="328.046" filterUnits="userSpaceOnUse" color-interpolation-filters="sRGB">
<feFlood flood-opacity="0" result="BackgroundImageFix"/>
<feGaussianBlur in="BackgroundImageFix" stdDeviation="30"/>
<feComposite in2="SourceAlpha" operator="in" result="effect1_backgroundBlur_1250_1461"/>
<feBlend mode="normal" in="SourceGraphic" in2="effect1_backgroundBlur_1250_1461" result="shape"/>
</filter>
<linearGradient id="paint0_linear_1250_1461" x1="380.054" y1="1" x2="207.14" y2="319.101" gradientUnits="userSpaceOnUse">
<stop/>
<stop offset="1" stop-color="#959595" stop-opacity="0"/>
</linearGradient>
<linearGradient id="paint1_linear_1250_1461" x1="1.00014" y1="0.999988" x2="173.914" y2="319.101" gradientUnits="userSpaceOnUse">
<stop stop-color="#C6C6C6"/>
<stop offset="0.932292" stop-color="#787878" stop-opacity="0.0677083"/>
<stop offset="1" stop-opacity="0"/>
</linearGradient>
</defs>
</svg>
