<svg width="80" height="80" viewBox="0 0 80 80" fill="none" xmlns="http://www.w3.org/2000/svg">
<g filter="url(#filter0_d_632_743)">
<circle cx="36" cy="36" r="36" fill="url(#paint0_radial_632_743)"/>
<circle cx="36" cy="36" r="35.75" stroke="url(#paint1_linear_632_743)" stroke-width="0.5"/>
</g>
<path d="M36.0011 41.1996C35.6445 41.1996 27.1829 41.1262 20.7125 34.7044C20.5754 34.5685 20.442 34.4325 20.3111 34.2941C18.9566 32.8743 18.3127 31.1874 18.4497 29.415C18.5698 27.8519 19.2949 26.3359 20.493 25.147C21.691 23.9582 23.2177 23.2387 24.7941 23.1196C26.4445 22.9944 28.0221 23.5311 29.3814 24.6742C29.5281 22.9126 30.2618 21.4266 31.5168 20.3569C32.7161 19.3354 34.3095 18.7734 36.0023 18.7734C37.6951 18.7734 39.2897 19.3354 40.4877 20.3569C41.744 21.4266 42.4764 22.9126 42.6243 24.6742C43.9837 23.5311 45.5613 22.9944 47.2116 23.1196C48.7868 23.2387 50.3147 23.9582 51.5116 25.147C52.7096 26.3359 53.4348 27.8507 53.5548 29.415C53.6906 31.1874 53.0467 32.8743 51.6935 34.2941C51.5625 34.4313 51.4279 34.5685 51.2921 34.7044C44.8192 41.1262 36.3588 41.1996 36.0011 41.1996ZM25.2597 24.4371C23.7925 24.4371 22.415 25.1134 21.4352 26.0856C19.6732 27.8339 18.8741 30.8637 21.28 33.3869C21.4024 33.5156 21.5273 33.6432 21.6559 33.7707C27.7407 39.8086 35.9198 39.8784 36.0023 39.8784C36.0835 39.8784 44.2783 39.793 50.3487 33.7707C50.4772 33.6432 50.6021 33.5156 50.7246 33.3869C53.1304 30.8649 52.3301 27.8339 50.5682 26.0868C48.8062 24.3385 45.7529 23.5455 43.2112 25.9316C43.0815 26.0531 42.953 26.177 42.8244 26.3046C42.725 26.4032 42.6304 26.5031 42.5358 26.603L41.265 27.9326L41.3147 26.106C41.3184 25.9677 41.3232 25.8281 41.3232 25.6873C41.3232 25.508 41.3208 25.3299 41.3159 25.1519C41.2189 21.6805 38.4942 20.0982 36.0035 20.0982C33.5128 20.0982 30.7868 21.6793 30.691 25.1519C30.6862 25.3287 30.6838 25.5068 30.6838 25.6873C30.6838 25.8245 30.6874 25.9604 30.691 26.0952L30.7395 27.9326L29.4736 26.6066C29.3778 26.5055 29.2808 26.4044 29.1813 26.3046C29.0528 26.177 28.9243 26.0531 28.7945 25.9316C27.6631 24.8691 26.4323 24.4371 25.2597 24.4371Z" fill="white" fill-opacity="0.4"/>
<path d="M53.3318 50.9448C50.9466 52.0326 48.2219 52.3165 45.6439 51.7414C43.1435 51.1831 40.9511 49.8908 39.2668 47.9932C39.4317 48.1064 39.6015 48.2158 39.7761 48.3205C41.2167 49.1821 42.8173 49.6152 44.4179 49.6152C45.8403 49.6152 47.2639 49.2735 48.576 48.5852C48.6694 48.5371 48.7615 48.4866 48.8537 48.4348L48.194 47.2845C48.114 47.3303 48.034 47.3736 47.9527 47.4157C45.5821 48.6586 42.7833 48.5744 40.4648 47.1883C38.0918 45.7696 36.6742 43.2873 36.6742 40.5488V40.0386H36.6621H35.3403H35.3282V40.5488C35.3282 43.2873 33.9107 45.7696 31.5376 47.1883C29.2191 48.5744 26.4204 48.6598 24.0497 47.4157C23.9685 47.3736 23.8884 47.3303 23.8084 47.2845L23.1487 48.4348C23.2409 48.4866 23.3331 48.5371 23.4264 48.5852C24.7385 49.2735 26.1609 49.6152 27.5845 49.6152C29.1851 49.6152 30.7846 49.1821 32.2264 48.3205C32.401 48.2171 32.5707 48.1076 32.7357 47.9932C31.0513 49.8908 28.8589 51.1831 26.3585 51.7414C23.7805 52.3177 21.0558 52.0338 18.6706 50.9448L18 52.0975C19.7825 52.9302 21.7397 53.3561 23.7053 53.3561C24.6924 53.3561 25.6807 53.249 26.6508 53.0325C29.6411 52.3647 32.2373 50.7523 34.1556 48.3723C34.6043 47.8164 34.9947 47.2196 35.327 46.5951V53.3561H36.6609V46.5722C36.9968 47.2051 37.3909 47.8104 37.8444 48.3723C39.7639 50.7523 42.3589 52.3634 45.3492 53.0325C46.3193 53.249 47.3076 53.3561 48.2947 53.3561C50.2603 53.3561 52.2175 52.9302 54 52.0975L53.3318 50.9448Z" fill="white" fill-opacity="0.4"/>
<path d="M35.1337 34.1883H34.1636C34.1636 32.7552 32.7582 31.5881 31.0302 31.5881C29.3023 31.5881 27.8968 32.754 27.8968 34.1883H26.9268C26.9268 32.2246 28.7675 30.6255 31.0302 30.6255C33.293 30.6255 35.1337 32.2234 35.1337 34.1883Z" fill="white" fill-opacity="0.4"/>
<path d="M32.1457 34.2108C32.9165 34.2108 33.5414 33.5907 33.5414 32.8259C33.5414 32.061 32.9165 31.4409 32.1457 31.4409C31.3749 31.4409 30.75 32.061 30.75 32.8259C30.75 33.5907 31.3749 34.2108 32.1457 34.2108Z" fill="white" fill-opacity="0.4"/>
<path d="M45.0859 34.1883H44.1158C44.1158 32.7552 42.7104 31.5881 40.9824 31.5881C39.2544 31.5881 37.849 32.754 37.849 34.1883H36.8789C36.8789 32.2246 38.7196 30.6255 40.9824 30.6255C43.2451 30.6255 45.0859 32.2234 45.0859 34.1883Z" fill="white" fill-opacity="0.4"/>
<path d="M42.0988 34.2108C42.8697 34.2108 43.4946 33.5907 43.4946 32.8259C43.4946 32.061 42.8697 31.4409 42.0988 31.4409C41.328 31.4409 40.7031 32.061 40.7031 32.8259C40.7031 33.5907 41.328 34.2108 42.0988 34.2108Z" fill="white" fill-opacity="0.4"/>
<path d="M35.9861 37.7235C34.8427 37.7235 33.7828 37.1399 33.2881 36.2387L34.1406 35.7778C34.4692 36.3746 35.1931 36.7609 35.9874 36.7609C36.7816 36.7609 37.5055 36.3746 37.8342 35.7778L38.6854 36.2387C38.1895 37.1399 37.1296 37.7235 35.9861 37.7235Z" fill="white" fill-opacity="0.4"/>
<g filter="url(#filter1_d_632_743)">
<path d="M36.0011 41.1996C35.6445 41.1996 27.1829 41.1262 20.7125 34.7044C20.5754 34.5685 20.442 34.4325 20.3111 34.2941C18.9566 32.8743 18.3127 31.1874 18.4497 29.415C18.5698 27.8519 19.2949 26.3359 20.493 25.147C21.691 23.9582 23.2177 23.2387 24.7941 23.1196C26.4445 22.9944 28.0221 23.5311 29.3814 24.6742C29.5281 22.9126 30.2618 21.4266 31.5168 20.3569C32.7161 19.3354 34.3095 18.7734 36.0023 18.7734C37.6951 18.7734 39.2897 19.3354 40.4877 20.3569C41.744 21.4266 42.4764 22.9126 42.6243 24.6742C43.9837 23.5311 45.5613 22.9944 47.2116 23.1196C48.7868 23.2387 50.3147 23.9582 51.5116 25.147C52.7096 26.3359 53.4348 27.8507 53.5548 29.415C53.6906 31.1874 53.0467 32.8743 51.6935 34.2941C51.5625 34.4313 51.4279 34.5685 51.2921 34.7044C44.8192 41.1262 36.3588 41.1996 36.0011 41.1996ZM25.2597 24.4371C23.7925 24.4371 22.415 25.1134 21.4352 26.0856C19.6732 27.8339 18.8741 30.8637 21.28 33.3869C21.4024 33.5156 21.5273 33.6432 21.6559 33.7707C27.7407 39.8086 35.9198 39.8784 36.0023 39.8784C36.0835 39.8784 44.2783 39.793 50.3487 33.7707C50.4772 33.6432 50.6021 33.5156 50.7246 33.3869C53.1304 30.8649 52.3301 27.8339 50.5682 26.0868C48.8062 24.3385 45.7529 23.5455 43.2112 25.9316C43.0815 26.0531 42.953 26.177 42.8244 26.3046C42.725 26.4032 42.6304 26.5031 42.5358 26.603L41.265 27.9326L41.3147 26.106C41.3184 25.9677 41.3232 25.8281 41.3232 25.6873C41.3232 25.508 41.3208 25.3299 41.3159 25.1519C41.2189 21.6805 38.4942 20.0982 36.0035 20.0982C33.5128 20.0982 30.7868 21.6793 30.691 25.1519C30.6862 25.3287 30.6838 25.5068 30.6838 25.6873C30.6838 25.8245 30.6874 25.9604 30.691 26.0952L30.7395 27.9326L29.4736 26.6066C29.3778 26.5055 29.2808 26.4044 29.1813 26.3046C29.0528 26.177 28.9243 26.0531 28.7945 25.9316C27.6631 24.8691 26.4323 24.4371 25.2597 24.4371Z" fill="white" fill-opacity="0.4"/>
<path d="M53.3318 50.9448C50.9466 52.0326 48.2219 52.3165 45.6439 51.7414C43.1435 51.1831 40.9511 49.8908 39.2668 47.9932C39.4317 48.1064 39.6015 48.2158 39.7761 48.3205C41.2167 49.1821 42.8173 49.6152 44.4179 49.6152C45.8403 49.6152 47.2639 49.2735 48.576 48.5852C48.6694 48.5371 48.7615 48.4866 48.8537 48.4348L48.194 47.2845C48.114 47.3303 48.034 47.3736 47.9527 47.4157C45.5821 48.6586 42.7833 48.5744 40.4648 47.1883C38.0918 45.7696 36.6742 43.2873 36.6742 40.5488V40.0386H36.6621H35.3403H35.3282V40.5488C35.3282 43.2873 33.9107 45.7696 31.5376 47.1883C29.2191 48.5744 26.4204 48.6598 24.0497 47.4157C23.9685 47.3736 23.8884 47.3303 23.8084 47.2845L23.1487 48.4348C23.2409 48.4866 23.3331 48.5371 23.4264 48.5852C24.7385 49.2735 26.1609 49.6152 27.5845 49.6152C29.1851 49.6152 30.7846 49.1821 32.2264 48.3205C32.401 48.2171 32.5707 48.1076 32.7357 47.9932C31.0513 49.8908 28.8589 51.1831 26.3585 51.7414C23.7805 52.3177 21.0558 52.0338 18.6706 50.9448L18 52.0975C19.7825 52.9302 21.7397 53.3561 23.7053 53.3561C24.6924 53.3561 25.6807 53.249 26.6508 53.0325C29.6411 52.3647 32.2373 50.7523 34.1556 48.3723C34.6043 47.8164 34.9947 47.2196 35.327 46.5951V53.3561H36.6609V46.5722C36.9968 47.2051 37.3909 47.8104 37.8444 48.3723C39.7639 50.7523 42.3589 52.3634 45.3492 53.0325C46.3193 53.249 47.3076 53.3561 48.2947 53.3561C50.2603 53.3561 52.2175 52.9302 54 52.0975L53.3318 50.9448Z" fill="white" fill-opacity="0.4"/>
<path d="M35.1337 34.1883H34.1636C34.1636 32.7552 32.7582 31.5881 31.0302 31.5881C29.3023 31.5881 27.8968 32.754 27.8968 34.1883H26.9268C26.9268 32.2246 28.7675 30.6255 31.0302 30.6255C33.293 30.6255 35.1337 32.2234 35.1337 34.1883Z" fill="white" fill-opacity="0.4"/>
<path d="M32.1457 34.2108C32.9165 34.2108 33.5414 33.5907 33.5414 32.8259C33.5414 32.061 32.9165 31.4409 32.1457 31.4409C31.3749 31.4409 30.75 32.061 30.75 32.8259C30.75 33.5907 31.3749 34.2108 32.1457 34.2108Z" fill="white" fill-opacity="0.4"/>
<path d="M45.0859 34.1883H44.1158C44.1158 32.7552 42.7104 31.5881 40.9824 31.5881C39.2544 31.5881 37.849 32.754 37.849 34.1883H36.8789C36.8789 32.2246 38.7196 30.6255 40.9824 30.6255C43.2451 30.6255 45.0859 32.2234 45.0859 34.1883Z" fill="white" fill-opacity="0.4"/>
<path d="M42.0988 34.2108C42.8697 34.2108 43.4946 33.5907 43.4946 32.8259C43.4946 32.061 42.8697 31.4409 42.0988 31.4409C41.328 31.4409 40.7031 32.061 40.7031 32.8259C40.7031 33.5907 41.328 34.2108 42.0988 34.2108Z" fill="white" fill-opacity="0.4"/>
<path d="M35.9861 37.7235C34.8427 37.7235 33.7828 37.1399 33.2881 36.2387L34.1406 35.7778C34.4692 36.3746 35.1931 36.7609 35.9874 36.7609C36.7816 36.7609 37.5055 36.3746 37.8342 35.7778L38.6854 36.2387C38.1895 37.1399 37.1296 37.7235 35.9861 37.7235Z" fill="white" fill-opacity="0.4"/>
<g filter="url(#filter2_d_632_743)">
<path d="M36.0011 41.1996C35.6445 41.1996 27.1829 41.1262 20.7125 34.7044C20.5754 34.5685 20.442 34.4325 20.3111 34.2941C18.9566 32.8743 18.3127 31.1874 18.4497 29.415C18.5698 27.8519 19.2949 26.3359 20.493 25.147C21.691 23.9582 23.2177 23.2387 24.7941 23.1196C26.4445 22.9944 28.0221 23.5311 29.3814 24.6742C29.5281 22.9126 30.2618 21.4266 31.5168 20.3569C32.7161 19.3354 34.3095 18.7734 36.0023 18.7734C37.6951 18.7734 39.2897 19.3354 40.4877 20.3569C41.744 21.4266 42.4764 22.9126 42.6243 24.6742C43.9837 23.5311 45.5613 22.9944 47.2116 23.1196C48.7868 23.2387 50.3147 23.9582 51.5116 25.147C52.7096 26.3359 53.4348 27.8507 53.5548 29.415C53.6906 31.1874 53.0467 32.8743 51.6935 34.2941C51.5625 34.4313 51.4279 34.5685 51.2921 34.7044C44.8192 41.1262 36.3588 41.1996 36.0011 41.1996ZM25.2597 24.4371C23.7925 24.4371 22.415 25.1134 21.4352 26.0856C19.6732 27.8339 18.8741 30.8637 21.28 33.3869C21.4024 33.5156 21.5273 33.6432 21.6559 33.7707C27.7407 39.8086 35.9198 39.8784 36.0023 39.8784C36.0835 39.8784 44.2783 39.793 50.3487 33.7707C50.4772 33.6432 50.6021 33.5156 50.7246 33.3869C53.1304 30.8649 52.3301 27.8339 50.5682 26.0868C48.8062 24.3385 45.7529 23.5455 43.2112 25.9316C43.0815 26.0531 42.953 26.177 42.8244 26.3046C42.725 26.4032 42.6304 26.5031 42.5358 26.603L41.265 27.9326L41.3147 26.106C41.3184 25.9677 41.3232 25.8281 41.3232 25.6873C41.3232 25.508 41.3208 25.3299 41.3159 25.1519C41.2189 21.6805 38.4942 20.0982 36.0035 20.0982C33.5128 20.0982 30.7868 21.6793 30.691 25.1519C30.6862 25.3287 30.6838 25.5068 30.6838 25.6873C30.6838 25.8245 30.6874 25.9604 30.691 26.0952L30.7395 27.9326L29.4736 26.6066C29.3778 26.5055 29.2808 26.4044 29.1813 26.3046C29.0528 26.177 28.9243 26.0531 28.7945 25.9316C27.6631 24.8691 26.4323 24.4371 25.2597 24.4371Z" fill="white" fill-opacity="0.4"/>
<path d="M53.3318 50.9448C50.9466 52.0326 48.2219 52.3165 45.6439 51.7414C43.1435 51.1831 40.9511 49.8908 39.2668 47.9932C39.4317 48.1064 39.6015 48.2158 39.7761 48.3205C41.2167 49.1821 42.8173 49.6152 44.4179 49.6152C45.8403 49.6152 47.2639 49.2735 48.576 48.5852C48.6694 48.5371 48.7615 48.4866 48.8537 48.4348L48.194 47.2845C48.114 47.3303 48.034 47.3736 47.9527 47.4157C45.5821 48.6586 42.7833 48.5744 40.4648 47.1883C38.0918 45.7696 36.6742 43.2873 36.6742 40.5488V40.0386H36.6621H35.3403H35.3282V40.5488C35.3282 43.2873 33.9107 45.7696 31.5376 47.1883C29.2191 48.5744 26.4204 48.6598 24.0497 47.4157C23.9685 47.3736 23.8884 47.3303 23.8084 47.2845L23.1487 48.4348C23.2409 48.4866 23.3331 48.5371 23.4264 48.5852C24.7385 49.2735 26.1609 49.6152 27.5845 49.6152C29.1851 49.6152 30.7846 49.1821 32.2264 48.3205C32.401 48.2171 32.5707 48.1076 32.7357 47.9932C31.0513 49.8908 28.8589 51.1831 26.3585 51.7414C23.7805 52.3177 21.0558 52.0338 18.6706 50.9448L18 52.0975C19.7825 52.9302 21.7397 53.3561 23.7053 53.3561C24.6924 53.3561 25.6807 53.249 26.6508 53.0325C29.6411 52.3647 32.2373 50.7523 34.1556 48.3723C34.6043 47.8164 34.9947 47.2196 35.327 46.5951V53.3561H36.6609V46.5722C36.9968 47.2051 37.3909 47.8104 37.8444 48.3723C39.7639 50.7523 42.3589 52.3634 45.3492 53.0325C46.3193 53.249 47.3076 53.3561 48.2947 53.3561C50.2603 53.3561 52.2175 52.9302 54 52.0975L53.3318 50.9448Z" fill="white" fill-opacity="0.4"/>
<path d="M35.1337 34.1883H34.1636C34.1636 32.7552 32.7582 31.5881 31.0302 31.5881C29.3023 31.5881 27.8968 32.754 27.8968 34.1883H26.9268C26.9268 32.2246 28.7675 30.6255 31.0302 30.6255C33.293 30.6255 35.1337 32.2234 35.1337 34.1883Z" fill="white" fill-opacity="0.4"/>
<path d="M32.1457 34.2108C32.9165 34.2108 33.5414 33.5907 33.5414 32.8259C33.5414 32.061 32.9165 31.4409 32.1457 31.4409C31.3749 31.4409 30.75 32.061 30.75 32.8259C30.75 33.5907 31.3749 34.2108 32.1457 34.2108Z" fill="white" fill-opacity="0.4"/>
<path d="M45.0859 34.1883H44.1158C44.1158 32.7552 42.7104 31.5881 40.9824 31.5881C39.2544 31.5881 37.849 32.754 37.849 34.1883H36.8789C36.8789 32.2246 38.7196 30.6255 40.9824 30.6255C43.2451 30.6255 45.0859 32.2234 45.0859 34.1883Z" fill="white" fill-opacity="0.4"/>
<path d="M42.0988 34.2108C42.8697 34.2108 43.4946 33.5907 43.4946 32.8259C43.4946 32.061 42.8697 31.4409 42.0988 31.4409C41.328 31.4409 40.7031 32.061 40.7031 32.8259C40.7031 33.5907 41.328 34.2108 42.0988 34.2108Z" fill="white" fill-opacity="0.4"/>
<path d="M35.9861 37.7235C34.8427 37.7235 33.7828 37.1399 33.2881 36.2387L34.1406 35.7778C34.4692 36.3746 35.1931 36.7609 35.9874 36.7609C36.7816 36.7609 37.5055 36.3746 37.8342 35.7778L38.6854 36.2387C38.1895 37.1399 37.1296 37.7235 35.9861 37.7235Z" fill="white" fill-opacity="0.4"/>
</g>
</g>
<defs>
<filter id="filter0_d_632_743" x="0" y="0" width="80" height="80" filterUnits="userSpaceOnUse" color-interpolation-filters="sRGB">
<feFlood flood-opacity="0" result="BackgroundImageFix"/>
<feColorMatrix in="SourceAlpha" type="matrix" values="0 0 0 0 0 0 0 0 0 0 0 0 0 0 0 0 0 0 127 0" result="hardAlpha"/>
<feOffset dx="4" dy="4"/>
<feGaussianBlur stdDeviation="2"/>
<feComposite in2="hardAlpha" operator="out"/>
<feColorMatrix type="matrix" values="0 0 0 0 0 0 0 0 0 0 0 0 0 0 0 0 0 0 0.2 0"/>
<feBlend mode="normal" in2="BackgroundImageFix" result="effect1_dropShadow_632_743"/>
<feBlend mode="normal" in="SourceGraphic" in2="effect1_dropShadow_632_743" result="shape"/>
</filter>
<filter id="filter1_d_632_743" x="18" y="18.7734" width="44" height="42.5825" filterUnits="userSpaceOnUse" color-interpolation-filters="sRGB">
<feFlood flood-opacity="0" result="BackgroundImageFix"/>
<feColorMatrix in="SourceAlpha" type="matrix" values="0 0 0 0 0 0 0 0 0 0 0 0 0 0 0 0 0 0 127 0" result="hardAlpha"/>
<feOffset dx="4" dy="4"/>
<feGaussianBlur stdDeviation="2"/>
<feColorMatrix type="matrix" values="0 0 0 0 0 0 0 0 0 0 0 0 0 0 0 0 0 0 0.2 0"/>
<feBlend mode="normal" in2="BackgroundImageFix" result="effect1_dropShadow_632_743"/>
<feBlend mode="normal" in="SourceGraphic" in2="effect1_dropShadow_632_743" result="shape"/>
</filter>
<filter id="filter2_d_632_743" x="11" y="11.7734" width="46" height="44.5825" filterUnits="userSpaceOnUse" color-interpolation-filters="sRGB">
<feFlood flood-opacity="0" result="BackgroundImageFix"/>
<feColorMatrix in="SourceAlpha" type="matrix" values="0 0 0 0 0 0 0 0 0 0 0 0 0 0 0 0 0 0 127 0" result="hardAlpha"/>
<feOffset dx="-2" dy="-2"/>
<feGaussianBlur stdDeviation="2.5"/>
<feColorMatrix type="matrix" values="0 0 0 0 1 0 0 0 0 1 0 0 0 0 1 0 0 0 0.2 0"/>
<feBlend mode="normal" in2="BackgroundImageFix" result="effect1_dropShadow_632_743"/>
<feBlend mode="normal" in="SourceGraphic" in2="effect1_dropShadow_632_743" result="shape"/>
</filter>
<radialGradient id="paint0_radial_632_743" cx="0" cy="0" r="1" gradientUnits="userSpaceOnUse" gradientTransform="translate(36 36) rotate(90) scale(36)">
<stop stop-color="#82A748"/>
<stop offset="1" stop-color="#718456"/>
</radialGradient>
<linearGradient id="paint1_linear_632_743" x1="0" y1="0" x2="72" y2="72" gradientUnits="userSpaceOnUse">
<stop stop-color="#D1D1D1" stop-opacity="0.6"/>
<stop offset="1" stop-color="#BBBBBB" stop-opacity="0"/>
</linearGradient>
</defs>
</svg>
